<?xml version="1.0" standalone="yes"?>
<svg xmlns="http://www.w3.org/2000/svg" width="2484" height="3416">
<path style="fill:#ffffff; stroke:none;" d="M0 0L0 3416L2484 3416L2484 0L0 0z"/>
<path style="fill:#a2e0eb; stroke:none;" d="M218 152L219 153L218 152z"/>
<path style="fill:#19b2d9; stroke:none;" d="M219 152L218 154L219 152z"/>
<path style="fill:#010101; stroke:none;" d="M219 153L220 154L219 153z"/>
<path style="fill:#a2e0eb; stroke:none;" d="M1007 732L1007 738L997 738L997 745L991 745L991 751L985 751L985 757L980 757L980 764L974 764L974 770L968 770L968 776L963 776L963 784L957 784L957 790L952 790L952 796L947 796L947 803L941 803L941 809L936 809L936 815L930 815L930 822L924 822L924 828L919 828L919 834L913 834L913 841L907 841L907 847L903 847L903 860L897 860L897 866L892 866L892 872L886 872L886 879L880 879L880 885L875 885L875 891L869 891L869 898L863 898L863 904L858 904L858 912L853 912L853 918L847 918L847 924L842 924L842 931L836 931L836 937L831 937L831 943L825 943L825 950L819 950L819 956L814 956L814 962L809 962L809 969L803 969L803 975L798 975L798 981L792 981L792 988L786 988L786 994L781 994L781 1000L775 1000L775 1007L769 1007L769 1013L764 1013L764 1019L759 1019L759 1032L754 1032L754 1038L748 1038L748 1046L742 1046L742 1052L737 1052L737 1059L731 1059L731 1065L725 1065L725 1071L720 1071L720 1078L715 1078L715 1084L710 1084L710 1090L704 1090L704 1097L698 1097L698 1103L693 1103L693 1109L687 1109L687 1116L681 1116L681 1122L676 1122L676 1128L670 1128L670 1135L665 1135L665 1141L660 1141L660 1147L654 1147L654 1154L648 1154L648 1160L643 1160L643 1166L637 1166L637 1174L631 1174L631 1180L626 1180L626 1186L621 1186L621 1193L616 1193L616 1199L610 1199L610 1212L604 1212L604 1218L599 1218L599 1224L593 1224L593 1231L587 1231L587 1237L582 1237L582 1244L576 1244L576 1250L572 1250L572 1256L566 1256L566 1263L560 1263L560 1269L555 1269L555 1275L549 1275L549 1282L543 1282L543 1288L538 1288L538 1294L532 1294L532 1302L527 1302L527 1308L522 1308L522 1314L516 1314L516 1321L510 1321L510 1327L516 1327L516 1321L522 1321L522 1314L527 1314L527 1308L532 1308L532 1302L538 1302L538 1294L543 1294L543 1288L549 1288L549 1282L555 1282L555 1275L560 1275L560 1269L566 1269L566 1263L572 1263L572 1256L576 1256L576 1250L582 1250L582 1244L587 1244L587 1237L593 1237L593 1231L599 1231L599 1224L604 1224L604 1218L610 1218L610 1212L616 1212L616 1205L621 1205L621 1199L626 1199L626 1186L631 1186L631 1180L643 1180L643 1166L648 1166L648 1160L654 1160L654 1154L660 1154L660 1147L665 1147L665 1141L670 1141L670 1135L676 1135L676 1128L681 1128L681 1122L687 1122L687 1116L693 1116L693 1109L698 1109L698 1103L704 1103L704 1097L710 1097L710 1090L715 1090L715 1084L720 1084L720 1078L725 1078L725 1071L731 1071L731 1065L737 1065L737 1059L742 1059L742 1052L748 1052L748 1046L754 1046L754 1038L759 1038L759 1032L764 1032L764 1026L769 1026L769 1019L775 1019L775 1013L781 1013L781 1007L786 1007L786 1000L792 1000L792 994L798 994L798 988L803 988L803 981L809 981L809 969L814 969L814 962L819 962L819 956L825 956L825 950L831 950L831 943L836 943L836 937L842 937L842 931L847 931L847 924L853 924L853 918L858 918L858 912L863 912L863 904L869 904L869 898L875 898L875 891L880 891L880 885L886 885L886 879L892 879L892 872L897 872L897 866L903 866L903 860L907 860L907 853L913 853L913 847L919 847L919 841L924 841L924 834L930 834L930 828L936 828L936 822L941 822L941 815L947 815L947 809L952 809L952 803L957 803L957 790L963 790L963 784L968 784L968 776L974 776L974 770L980 770L980 764L985 764L985 757L991 757L991 751L997 751L997 745L1007 745L1007 738L1013 738L1013 745L1024 745L1024 738L1030 738L1030 745L1217 745L1217 738L1244 738L1244 745L1256 745L1256 738L1267 738L1267 745L1277 745L1277 751L1283 751L1283 757L1289 757L1289 764L1294 764L1294 770L1300 770L1300 776L1306 776L1306 784L1311 784L1311 790L1317 790L1317 796L1322 796L1322 803L1327 803L1327 815L1333 815L1333 822L1338 822L1338 828L1344 828L1344 834L1350 834L1350 841L1355 841L1355 847L1361 847L1361 853L1367 853L1367 860L1371 860L1371 866L1377 866L1377 872L1382 872L1382 879L1388 879L1388 885L1394 885L1394 891L1399 891L1399 898L1405 898L1405 904L1411 904L1411 912L1416 912L1416 918L1421 918L1421 924L1427 924L1427 931L1432 931L1432 937L1438 937L1438 943L1443 943L1443 950L1449 950L1449 962L1460 962L1460 975L1465 975L1465 981L1471 981L1471 988L1476 988L1476 994L1482 994L1482 1000L1488 1000L1488 1007L1493 1007L1493 1013L1499 1013L1499 1019L1505 1019L1505 1026L1510 1026L1510 1032L1515 1032L1515 1038L1520 1038L1520 1046L1526 1046L1526 1052L1532 1052L1532 1059L1537 1059L1537 1065L1543 1065L1543 1071L1549 1071L1549 1078L1554 1078L1554 1084L1559 1084L1559 1090L1564 1090L1564 1097L1570 1097L1570 1109L1581 1109L1581 1122L1587 1122L1587 1128L1598 1128L1598 1141L1604 1141L1604 1147L1609 1147L1609 1154L1614 1154L1614 1160L1620 1160L1620 1166L1626 1166L1626 1174L1631 1174L1631 1180L1637 1180L1637 1186L1643 1186L1643 1193L1648 1193L1648 1199L1653 1199L1653 1205L1658 1205L1658 1212L1664 1212L1664 1218L1670 1218L1670 1224L1675 1224L1675 1231L1681 1231L1681 1237L1687 1237L1687 1244L1692 1244L1692 1250L1698 1250L1698 1256L1702 1256L1702 1263L1708 1263L1708 1269L1714 1269L1714 1275L1719 1275L1719 1282L1725 1282L1725 1288L1731 1288L1731 1294L1736 1294L1736 1302L1742 1302L1742 1314L1747 1314L1747 1321L1752 1321L1752 1327L1758 1327L1758 1333L1764 1333L1764 1665L1758 1665L1758 1672L1752 1672L1752 1678L1747 1678L1747 1684L1742 1684L1742 1692L1736 1692L1736 1698L1731 1698L1731 1704L1725 1704L1725 1711L1719 1711L1719 1717L1714 1717L1714 1723L1708 1723L1708 1730L1702 1730L1702 1736L1698 1736L1698 1742L1692 1742L1692 1749L1687 1749L1687 1755L1681 1755L1681 1762L1675 1762L1675 1768L1670 1768L1670 1774L1664 1774L1664 1781L1658 1781L1658 1787L1653 1787L1653 1793L1648 1793L1648 1800L1643 1800L1643 1806L1637 1806L1637 1812L1631 1812L1631 1820L1626 1820L1626 1832L1620 1832L1620 1839L1614 1839L1614 1845L1609 1845L1609 1851L1604 1851L1604 1858L1598 1858L1598 1864L1593 1864L1593 1870L1587 1870L1587 1877L1581 1877L1581 1883L1576 1883L1576 1889L1570 1889L1570 1896L1564 1896L1564 1902L1559 1902L1559 1908L1554 1908L1554 1915L1549 1915L1549 1921L1543 1921L1543 1927L1537 1927L1537 1934L1532 1934L1532 1940L1526 1940L1526 1948L1520 1948L1520 1954L1515 1954L1515 1960L1510 1960L1510 1967L1505 1967L1505 1973L1499 1973L1499 1979L1493 1979L1493 1986L1488 1986L1488 1992L1482 1992L1482 1998L1476 1998L1476 2005L1471 2005L1471 2011L1465 2011L1465 2024L1460 2024L1460 2030L1455 2030L1455 2036L1449 2036L1449 2043L1443 2043L1443 2049L1438 2049L1438 2055L1432 2055L1432 2062L1427 2062L1427 2068L1421 2068L1421 2074L1416 2074L1416 2082L1411 2082L1411 2088L1405 2088L1405 2095L1399 2095L1399 2101L1394 2101L1394 2107L1388 2107L1388 2114L1382 2114L1382 2120L1377 2120L1377 2126L1371 2126L1371 2133L1367 2133L1367 2139L1361 2139L1361 2145L1355 2145L1355 2152L1350 2152L1350 2158L1344 2158L1344 2164L1338 2164L1338 2171L1333 2171L1333 2177L1327 2177L1327 2183L1322 2183L1322 2190L1317 2190L1317 2196L1311 2196L1311 2210L1306 2210L1306 2216L1300 2216L1300 2222L1294 2222L1294 2229L1289 2229L1289 2235L1283 2235L1283 2241L1273 2241L1273 2248L1007 2248L1007 2241L997 2241L997 2235L991 2235L991 2229L985 2229L985 2222L980 2222L980 2216L974 2216L974 2210L968 2210L968 2202L963 2202L963 2190L957 2190L957 2183L952 2183L952 2177L947 2177L947 2171L941 2171L941 2164L936 2164L936 2158L930 2158L930 2152L924 2152L924 2145L919 2145L919 2139L913 2139L913 2133L907 2133L907 2126L903 2126L903 2120L897 2120L897 2114L892 2114L892 2107L886 2107L886 2101L880 2101L880 2095L875 2095L875 2088L869 2088L869 2082L863 2082L863 2074L858 2074L858 2068L853 2068L853 2062L847 2062L847 2049L836 2049L836 2043L831 2043L831 2030L825 2030L825 2024L819 2024L819 2017L814 2017L814 2011L809 2011L809 2005L803 2005L803 1998L798 1998L798 1992L792 1992L792 1986L786 1986L786 1979L781 1979L781 1973L775 1973L775 1967L769 1967L769 1960L764 1960L764 1954L759 1954L759 1948L754 1948L754 1940L748 1940L748 1934L742 1934L742 1927L737 1927L737 1921L731 1921L731 1915L725 1915L725 1902L720 1902L720 1896L715 1896L715 1889L710 1889L710 1883L704 1883L704 1877L698 1877L698 1870L693 1870L693 1864L681 1864L681 1851L676 1851L676 1845L670 1845L670 1839L665 1839L665 1832L660 1832L660 1826L654 1826L654 1820L648 1820L648 1812L643 1812L643 1806L637 1806L637 1800L631 1800L631 1793L626 1793L626 1787L621 1787L621 1781L616 1781L616 1774L610 1774L610 1768L604 1768L604 1762L599 1762L599 1755L593 1755L593 1749L587 1749L587 1742L582 1742L582 1736L576 1736L576 1730L572 1730L572 1723L566 1723L566 1717L560 1717L560 1711L555 1711L555 1698L549 1698L549 1692L543 1692L543 1684L538 1684L538 1678L532 1678L532 1672L527 1672L527 1665L522 1665L522 1659L516 1659L516 1340L510 1340L510 1333L505 1333L505 1659L510 1659L510 1665L516 1665L516 1672L522 1672L522 1678L527 1678L527 1684L532 1684L532 1692L538 1692L538 1698L543 1698L543 1704L549 1704L549 1717L555 1717L555 1723L560 1723L560 1730L566 1730L566 1736L572 1736L572 1742L576 1742L576 1749L582 1749L582 1755L587 1755L587 1762L593 1762L593 1768L599 1768L599 1774L604 1774L604 1781L610 1781L610 1787L616 1787L616 1793L621 1793L621 1800L626 1800L626 1806L631 1806L631 1812L637 1812L637 1820L643 1820L643 1826L648 1826L648 1832L654 1832L654 1839L660 1839L660 1845L665 1845L665 1851L670 1851L670 1858L676 1858L676 1864L681 1864L681 1870L687 1870L687 1877L693 1877L693 1883L698 1883L698 1889L704 1889L704 1902L710 1902L710 1908L715 1908L715 1915L720 1915L720 1921L725 1921L725 1927L731 1927L731 1934L737 1934L737 1940L742 1940L742 1948L748 1948L748 1954L754 1954L754 1960L759 1960L759 1967L764 1967L764 1973L769 1973L769 1979L775 1979L775 1986L781 1986L781 1992L786 1992L786 1998L792 1998L792 2005L798 2005L798 2011L803 2011L803 2017L809 2017L809 2024L814 2024L814 2030L819 2030L819 2036L825 2036L825 2043L831 2043L831 2049L836 2049L836 2055L842 2055L842 2062L847 2062L847 2074L853 2074L853 2082L858 2082L858 2088L863 2088L863 2095L869 2095L869 2101L875 2101L875 2107L880 2107L880 2114L886 2114L886 2120L892 2120L892 2126L897 2126L897 2133L903 2133L903 2139L907 2139L907 2145L913 2145L913 2152L919 2152L919 2158L924 2158L924 2164L930 2164L930 2171L936 2171L936 2177L941 2177L941 2183L947 2183L947 2190L952 2190L952 2196L957 2196L957 2202L963 2202L963 2210L968 2210L968 2216L974 2216L974 2222L980 2222L980 2229L985 2229L985 2235L991 2235L991 2241L997 2241L997 2248L1001 2248L1001 2254L1277 2254L1277 2248L1283 2248L1283 2241L1289 2241L1289 2235L1294 2235L1294 2229L1300 2229L1300 2222L1306 2222L1306 2216L1311 2216L1311 2210L1317 2210L1317 2202L1322 2202L1322 2196L1327 2196L1327 2190L1333 2190L1333 2183L1338 2183L1338 2177L1344 2177L1344 2164L1355 2164L1355 2158L1361 2158L1361 2152L1367 2152L1367 2139L1371 2139L1371 2133L1377 2133L1377 2126L1382 2126L1382 2120L1388 2120L1388 2114L1394 2114L1394 2107L1399 2107L1399 2101L1405 2101L1405 2095L1411 2095L1411 2088L1416 2088L1416 2082L1421 2082L1421 2074L1427 2074L1427 2068L1432 2068L1432 2062L1438 2062L1438 2055L1443 2055L1443 2049L1449 2049L1449 2043L1455 2043L1455 2036L1460 2036L1460 2030L1465 2030L1465 2024L1471 2024L1471 2017L1476 2017L1476 2011L1482 2011L1482 2005L1488 2005L1488 1998L1493 1998L1493 1992L1499 1992L1499 1986L1505 1986L1505 1979L1510 1979L1510 1973L1515 1973L1515 1960L1520 1960L1520 1954L1526 1954L1526 1948L1532 1948L1532 1940L1537 1940L1537 1934L1543 1934L1543 1927L1549 1927L1549 1921L1554 1921L1554 1915L1559 1915L1559 1908L1564 1908L1564 1902L1570 1902L1570 1896L1576 1896L1576 1889L1581 1889L1581 1883L1587 1883L1587 1877L1593 1877L1593 1870L1598 1870L1598 1864L1604 1864L1604 1858L1609 1858L1609 1851L1614 1851L1614 1845L1620 1845L1620 1839L1626 1839L1626 1832L1631 1832L1631 1826L1637 1826L1637 1820L1643 1820L1643 1806L1648 1806L1648 1800L1653 1800L1653 1793L1658 1793L1658 1787L1664 1787L1664 1781L1670 1781L1670 1774L1675 1774L1675 1768L1681 1768L1681 1762L1687 1762L1687 1755L1692 1755L1692 1749L1698 1749L1698 1742L1702 1742L1702 1736L1708 1736L1708 1730L1714 1730L1714 1723L1719 1723L1719 1717L1725 1717L1725 1711L1731 1711L1731 1704L1736 1704L1736 1698L1742 1698L1742 1692L1747 1692L1747 1684L1752 1684L1752 1678L1758 1678L1758 1672L1764 1672L1764 1665L1769 1665L1769 1327L1764 1327L1764 1314L1752 1314L1752 1308L1747 1308L1747 1302L1742 1302L1742 1288L1736 1288L1736 1282L1731 1282L1731 1275L1725 1275L1725 1269L1719 1269L1719 1263L1714 1263L1714 1256L1708 1256L1708 1250L1702 1250L1702 1244L1698 1244L1698 1237L1692 1237L1692 1231L1687 1231L1687 1224L1681 1224L1681 1218L1675 1218L1675 1212L1670 1212L1670 1205L1664 1205L1664 1199L1658 1199L1658 1193L1653 1193L1653 1186L1648 1186L1648 1180L1643 1180L1643 1174L1637 1174L1637 1166L1631 1166L1631 1160L1626 1160L1626 1154L1620 1154L1620 1147L1614 1147L1614 1141L1609 1141L1609 1135L1604 1135L1604 1128L1598 1128L1598 1122L1593 1122L1593 1109L1587 1109L1587 1103L1581 1103L1581 1097L1576 1097L1576 1090L1570 1090L1570 1084L1564 1084L1564 1078L1559 1078L1559 1071L1554 1071L1554 1065L1549 1065L1549 1059L1543 1059L1543 1052L1537 1052L1537 1046L1532 1046L1532 1038L1526 1038L1526 1032L1520 1032L1520 1026L1515 1026L1515 1019L1510 1019L1510 1013L1505 1013L1505 1007L1499 1007L1499 1000L1493 1000L1493 994L1488 994L1488 988L1482 988L1482 981L1476 981L1476 975L1471 975L1471 969L1465 969L1465 962L1460 962L1460 956L1455 956L1455 950L1449 950L1449 943L1443 943L1443 931L1438 931L1438 924L1432 924L1432 918L1427 918L1427 912L1421 912L1421 904L1416 904L1416 898L1411 898L1411 891L1405 891L1405 885L1399 885L1399 879L1394 879L1394 872L1388 872L1388 866L1382 866L1382 860L1377 860L1377 853L1371 853L1371 847L1367 847L1367 841L1361 841L1361 834L1355 834L1355 828L1350 828L1350 822L1344 822L1344 815L1338 815L1338 809L1333 809L1333 803L1327 803L1327 796L1322 796L1322 790L1317 790L1317 784L1311 784L1311 776L1306 776L1306 770L1300 770L1300 764L1294 764L1294 751L1289 751L1289 745L1283 745L1283 738L1273 738L1273 732L1007 732z"/>
<path style="fill:#19b2d9; stroke:none;" d="M1007 738L1007 745L1013 745L1013 738L1007 738M1024 738L1024 745L1030 745L1030 738L1024 738M1217 738L1217 745L1244 745L1244 738L1217 738M1256 738L1256 745L1261 745L1261 757L1250 757L1250 764L1244 764L1244 770L1239 770L1239 776L1233 776L1233 790L1229 790L1229 796L1217 796L1217 809L1212 809L1212 815L1206 815L1206 822L1200 822L1200 828L1195 828L1195 834L1189 834L1189 841L1183 841L1183 847L1179 847L1179 853L1173 853L1173 860L1168 860L1168 866L1162 866L1162 872L1156 872L1156 879L1151 879L1151 885L1145 885L1145 898L1135 898L1135 904L1129 904L1129 918L1123 918L1123 924L1118 924L1118 931L1112 931L1112 937L1106 937L1106 943L1101 943L1101 950L1095 950L1095 956L1091 956L1091 962L1085 962L1085 969L1079 969L1079 975L1074 975L1074 981L1068 981L1068 994L1057 994L1057 1000L1051 1000L1051 1013L1041 1013L1041 1026L1035 1026L1035 1032L1030 1032L1030 1038L1024 1038L1024 1046L1018 1046L1018 1052L1013 1052L1013 1059L1007 1059L1007 1065L1001 1065L1001 1071L997 1071L997 1078L991 1078L991 1084L985 1084L985 1090L980 1090L980 1097L974 1097L974 1103L968 1103L968 1109L963 1109L963 1116L957 1116L957 1122L952 1122L952 1135L947 1135L947 1141L941 1141L941 1147L936 1147L936 1154L930 1154L930 1160L924 1160L924 1166L919 1166L919 1174L913 1174L913 1180L907 1180L907 1186L903 1186L903 1193L897 1193L897 1199L892 1199L892 1205L886 1205L886 1212L880 1212L880 1218L875 1218L875 1224L869 1224L869 1231L863 1231L863 1237L858 1237L858 1244L853 1244L853 1250L847 1250L847 1256L842 1256L842 1263L836 1263L836 1269L831 1269L831 1275L825 1275L825 1288L814 1288L814 1294L809 1294L809 1308L798 1308L798 1321L792 1321L792 1327L786 1327L786 1340L792 1340L792 1346L798 1346L798 1352L803 1352L803 1359L809 1359L809 1365L814 1365L814 1371L819 1371L819 1378L825 1378L825 1384L831 1384L831 1390L836 1390L836 1397L842 1397L842 1403L847 1403L847 1409L853 1409L853 1416L858 1416L858 1422L863 1422L863 1430L869 1430L869 1436L875 1436L875 1449L880 1449L880 1455L886 1455L886 1461L892 1461L892 1468L897 1468L897 1474L903 1474L903 1480L913 1480L913 1499L919 1499L919 1487L924 1487L924 1480L930 1480L930 1474L936 1474L936 1468L941 1468L941 1461L947 1461L947 1455L952 1455L952 1442L957 1442L957 1436L963 1436L963 1430L968 1430L968 1422L974 1422L974 1416L980 1416L980 1409L985 1409L985 1403L991 1403L991 1397L997 1397L997 1390L1001 1390L1001 1384L1007 1384L1007 1378L1013 1378L1013 1371L1018 1371L1018 1365L1024 1365L1024 1359L1030 1359L1030 1352L1035 1352L1035 1346L1041 1346L1041 1340L1045 1340L1045 1333L1051 1333L1051 1327L1057 1327L1057 1321L1062 1321L1062 1314L1068 1314L1068 1308L1074 1308L1074 1302L1079 1302L1079 1294L1085 1294L1085 1288L1091 1288L1091 1282L1095 1282L1095 1269L1101 1269L1101 1263L1106 1263L1106 1256L1112 1256L1112 1250L1118 1250L1118 1244L1123 1244L1123 1237L1129 1237L1129 1231L1139 1231L1139 1218L1145 1218L1145 1212L1151 1212L1151 1205L1156 1205L1156 1199L1162 1199L1162 1193L1168 1193L1168 1186L1173 1186L1173 1180L1179 1180L1179 1174L1183 1174L1183 1166L1189 1166L1189 1160L1195 1160L1195 1154L1200 1154L1200 1147L1206 1147L1206 1141L1212 1141L1212 1135L1217 1135L1217 1128L1223 1128L1223 1122L1229 1122L1229 1116L1233 1116L1233 1109L1239 1109L1239 1103L1244 1103L1244 1097L1250 1097L1250 1090L1256 1090L1256 1084L1261 1084L1261 1078L1267 1078L1267 1071L1273 1071L1273 1065L1277 1065L1277 1071L1283 1071L1283 1078L1289 1078L1289 1084L1294 1084L1294 1090L1300 1090L1300 1097L1306 1097L1306 1103L1311 1103L1311 1109L1317 1109L1317 1122L1322 1122L1322 1128L1327 1128L1327 1135L1333 1135L1333 1141L1338 1141L1338 1147L1344 1147L1344 1154L1350 1154L1350 1160L1355 1160L1355 1166L1361 1166L1361 1174L1367 1174L1367 1180L1371 1180L1371 1186L1377 1186L1377 1193L1382 1193L1382 1199L1388 1199L1388 1205L1394 1205L1394 1212L1399 1212L1399 1218L1405 1218L1405 1224L1411 1224L1411 1231L1416 1231L1416 1237L1421 1237L1421 1244L1427 1244L1427 1250L1432 1250L1432 1256L1438 1256L1438 1269L1449 1269L1449 1275L1455 1275L1455 1288L1460 1288L1460 1294L1465 1294L1465 1302L1471 1302L1471 1308L1476 1308L1476 1314L1482 1314L1482 1321L1488 1321L1488 1327L1493 1327L1493 1333L1499 1333L1499 1340L1505 1340L1505 1346L1510 1346L1510 1352L1515 1352L1515 1359L1520 1359L1520 1365L1526 1365L1526 1371L1532 1371L1532 1378L1537 1378L1537 1384L1543 1384L1543 1390L1549 1390L1549 1397L1554 1397L1554 1403L1559 1403L1559 1409L1564 1409L1564 1416L1570 1416L1570 1422L1576 1422L1576 1436L1581 1436L1581 1442L1587 1442L1587 1449L1593 1449L1593 1455L1598 1455L1598 1461L1604 1461L1604 1468L1609 1468L1609 1474L1614 1474L1614 1480L1620 1480L1620 1487L1626 1487L1626 1493L1631 1493L1631 1499L1637 1499L1637 1506L1643 1506L1643 1512L1648 1512L1648 1518L1653 1518L1653 1525L1658 1525L1658 1531L1664 1531L1664 1537L1670 1537L1670 1544L1675 1544L1675 1550L1681 1550L1681 1556L1687 1556L1687 1564L1692 1564L1692 1570L1698 1570L1698 1577L1702 1577L1702 1583L1708 1583L1708 1589L1714 1589L1714 1596L1719 1596L1719 1608L1725 1608L1725 1615L1731 1615L1731 1621L1736 1621L1736 1627L1742 1627L1742 1634L1747 1634L1747 1640L1752 1640L1752 1646L1758 1646L1758 1653L1764 1653L1764 1333L1758 1333L1758 1327L1752 1327L1752 1321L1747 1321L1747 1314L1742 1314L1742 1302L1736 1302L1736 1294L1731 1294L1731 1288L1725 1288L1725 1282L1719 1282L1719 1275L1714 1275L1714 1269L1708 1269L1708 1263L1702 1263L1702 1256L1698 1256L1698 1250L1692 1250L1692 1244L1687 1244L1687 1237L1681 1237L1681 1231L1675 1231L1675 1224L1670 1224L1670 1218L1664 1218L1664 1212L1658 1212L1658 1205L1653 1205L1653 1199L1648 1199L1648 1193L1643 1193L1643 1186L1637 1186L1637 1180L1631 1180L1631 1174L1626 1174L1626 1166L1620 1166L1620 1160L1614 1160L1614 1154L1609 1154L1609 1147L1604 1147L1604 1141L1598 1141L1598 1128L1587 1128L1587 1122L1581 1122L1581 1109L1570 1109L1570 1097L1564 1097L1564 1090L1559 1090L1559 1084L1554 1084L1554 1078L1549 1078L1549 1071L1543 1071L1543 1065L1537 1065L1537 1059L1532 1059L1532 1052L1526 1052L1526 1046L1520 1046L1520 1038L1515 1038L1515 1032L1510 1032L1510 1026L1505 1026L1505 1019L1499 1019L1499 1013L1493 1013L1493 1007L1488 1007L1488 1000L1482 1000L1482 994L1476 994L1476 988L1471 988L1471 981L1465 981L1465 975L1460 975L1460 962L1449 962L1449 950L1443 950L1443 943L1438 943L1438 937L1432 937L1432 931L1427 931L1427 924L1421 924L1421 918L1416 918L1416 912L1411 912L1411 904L1405 904L1405 898L1399 898L1399 891L1394 891L1394 885L1388 885L1388 879L1382 879L1382 872L1377 872L1377 866L1371 866L1371 860L1367 860L1367 853L1361 853L1361 847L1355 847L1355 841L1350 841L1350 834L1344 834L1344 828L1338 828L1338 822L1333 822L1333 815L1327 815L1327 803L1322 803L1322 796L1317 796L1317 790L1311 790L1311 784L1306 784L1306 776L1300 776L1300 770L1294 770L1294 764L1289 764L1289 757L1283 757L1283 751L1277 751L1277 745L1267 745L1267 738L1256 738M997 745L997 751L991 751L991 757L985 757L985 764L980 764L980 770L974 770L974 776L968 776L968 784L963 784L963 790L957 790L957 796L963 796L963 790L968 790L968 784L974 784L974 776L980 776L980 770L985 770L985 764L991 764L991 757L997 757L997 751L1001 751L1001 745L997 745z"/>
<path style="fill:#036c86; stroke:none;" d="M1001 745L1001 751L997 751L997 757L991 757L991 764L985 764L985 770L980 770L980 776L974 776L974 784L968 784L968 790L963 790L963 796L957 796L957 803L952 803L952 809L947 809L947 815L941 815L941 828L930 828L930 841L924 841L924 847L919 847L919 853L913 853L913 860L907 860L907 866L897 866L897 879L892 879L892 885L880 885L880 898L875 898L875 904L869 904L869 912L863 912L863 918L858 918L858 924L853 924L853 931L847 931L847 937L842 937L842 943L836 943L836 950L831 950L831 956L825 956L825 962L819 962L819 969L814 969L814 975L809 975L809 981L803 981L803 988L798 988L798 994L792 994L792 1000L786 1000L786 1007L781 1007L781 1013L775 1013L775 1019L769 1019L769 1026L764 1026L764 1032L759 1032L759 1038L754 1038L754 1046L748 1046L748 1052L742 1052L742 1059L737 1059L737 1071L731 1071L731 1078L725 1078L725 1084L720 1084L720 1090L715 1090L715 1097L710 1097L710 1103L704 1103L704 1109L698 1109L698 1116L693 1116L693 1122L687 1122L687 1128L681 1128L681 1135L676 1135L676 1141L670 1141L670 1147L665 1147L665 1154L660 1154L660 1160L654 1160L654 1166L648 1166L648 1174L643 1174L643 1180L637 1180L637 1186L631 1186L631 1193L626 1193L626 1199L621 1199L621 1205L616 1205L616 1212L610 1212L610 1218L604 1218L604 1224L599 1224L599 1231L593 1231L593 1237L587 1237L587 1244L582 1244L582 1250L576 1250L576 1256L572 1256L572 1263L566 1263L566 1275L560 1275L560 1282L549 1282L549 1294L543 1294L543 1302L538 1302L538 1308L532 1308L532 1314L527 1314L527 1321L522 1321L522 1327L516 1327L516 1340L522 1340L522 1346L527 1346L527 1352L532 1352L532 1359L538 1359L538 1365L543 1365L543 1371L549 1371L549 1378L555 1378L555 1384L560 1384L560 1390L566 1390L566 1403L576 1403L576 1416L582 1416L582 1422L593 1422L593 1436L599 1436L599 1442L604 1442L604 1449L610 1449L610 1455L616 1455L616 1461L621 1461L621 1468L626 1468L626 1474L631 1474L631 1480L637 1480L637 1487L643 1487L643 1493L648 1493L648 1499L654 1499L654 1506L660 1506L660 1512L665 1512L665 1518L670 1518L670 1525L676 1525L676 1531L681 1531L681 1537L687 1537L687 1544L693 1544L693 1550L698 1550L698 1556L704 1556L704 1570L715 1570L715 1583L720 1583L720 1589L725 1589L725 1596L731 1596L731 1602L737 1602L737 1608L742 1608L742 1615L748 1615L748 1621L754 1621L754 1627L759 1627L759 1634L764 1634L764 1640L769 1640L769 1646L775 1646L775 1653L781 1653L781 1659L786 1659L786 1665L792 1665L792 1672L798 1672L798 1678L803 1678L803 1684L809 1684L809 1692L814 1692L814 1698L819 1698L819 1704L825 1704L825 1717L836 1717L836 1723L842 1723L842 1736L847 1736L847 1742L853 1742L853 1749L858 1749L858 1755L863 1755L863 1762L869 1762L869 1768L875 1768L875 1774L880 1774L880 1781L886 1781L886 1787L892 1787L892 1793L897 1793L897 1800L903 1800L903 1806L907 1806L907 1812L913 1812L913 1820L919 1820L919 1826L924 1826L924 1832L930 1832L930 1839L936 1839L936 1845L941 1845L941 1851L947 1851L947 1858L952 1858L952 1864L957 1864L957 1877L963 1877L963 1883L968 1883L968 1889L974 1889L974 1896L980 1896L980 1902L985 1902L985 1908L991 1908L991 1915L997 1915L997 1921L1007 1921L1007 1915L1018 1915L1018 1902L1024 1902L1024 1896L1030 1896L1030 1889L1035 1889L1035 1883L1041 1883L1041 1877L1045 1877L1045 1870L1051 1870L1051 1864L1057 1864L1057 1858L1062 1858L1062 1851L1068 1851L1068 1845L1074 1845L1074 1839L1079 1839L1079 1832L1085 1832L1085 1826L1091 1826L1091 1820L1095 1820L1095 1812L1101 1812L1101 1806L1106 1806L1106 1800L1112 1800L1112 1793L1118 1793L1118 1787L1123 1787L1123 1781L1129 1781L1129 1774L1135 1774L1135 1755L1129 1755L1129 1749L1123 1749L1123 1742L1118 1742L1118 1736L1112 1736L1112 1730L1106 1730L1106 1723L1101 1723L1101 1717L1095 1717L1095 1711L1091 1711L1091 1704L1085 1704L1085 1698L1079 1698L1079 1692L1074 1692L1074 1684L1068 1684L1068 1678L1062 1678L1062 1672L1057 1672L1057 1665L1051 1665L1051 1659L1045 1659L1045 1653L1041 1653L1041 1646L1035 1646L1035 1640L1030 1640L1030 1634L1024 1634L1024 1627L1018 1627L1018 1621L1013 1621L1013 1608L1007 1608L1007 1602L1001 1602L1001 1596L997 1596L997 1589L991 1589L991 1583L985 1583L985 1577L980 1577L980 1570L974 1570L974 1564L968 1564L968 1556L963 1556L963 1550L957 1550L957 1544L952 1544L952 1537L947 1537L947 1531L941 1531L941 1525L936 1525L936 1518L930 1518L930 1512L924 1512L924 1506L919 1506L919 1499L913 1499L913 1480L903 1480L903 1474L897 1474L897 1468L892 1468L892 1461L886 1461L886 1455L880 1455L880 1449L875 1449L875 1436L869 1436L869 1430L863 1430L863 1422L858 1422L858 1416L853 1416L853 1409L847 1409L847 1403L842 1403L842 1397L836 1397L836 1390L831 1390L831 1384L825 1384L825 1378L819 1378L819 1371L814 1371L814 1365L809 1365L809 1359L803 1359L803 1352L798 1352L798 1346L792 1346L792 1340L786 1340L786 1327L792 1327L792 1321L798 1321L798 1308L809 1308L809 1294L814 1294L814 1288L825 1288L825 1275L831 1275L831 1269L836 1269L836 1263L842 1263L842 1256L847 1256L847 1250L853 1250L853 1244L858 1244L858 1237L863 1237L863 1231L869 1231L869 1224L875 1224L875 1218L880 1218L880 1212L886 1212L886 1205L892 1205L892 1199L897 1199L897 1193L903 1193L903 1186L907 1186L907 1180L913 1180L913 1174L919 1174L919 1166L924 1166L924 1160L930 1160L930 1154L936 1154L936 1147L941 1147L941 1141L947 1141L947 1135L952 1135L952 1122L957 1122L957 1116L963 1116L963 1109L968 1109L968 1103L974 1103L974 1097L980 1097L980 1090L985 1090L985 1084L991 1084L991 1078L997 1078L997 1071L1001 1071L1001 1065L1007 1065L1007 1059L1013 1059L1013 1052L1018 1052L1018 1046L1024 1046L1024 1038L1030 1038L1030 1032L1035 1032L1035 1026L1041 1026L1041 1013L1051 1013L1051 1000L1057 1000L1057 994L1068 994L1068 981L1074 981L1074 975L1079 975L1079 969L1085 969L1085 962L1091 962L1091 956L1095 956L1095 950L1101 950L1101 943L1106 943L1106 937L1112 937L1112 931L1118 931L1118 924L1123 924L1123 918L1129 918L1129 904L1135 904L1135 898L1145 898L1145 885L1151 885L1151 879L1156 879L1156 872L1162 872L1162 866L1168 866L1168 860L1173 860L1173 853L1179 853L1179 847L1183 847L1183 841L1189 841L1189 834L1195 834L1195 828L1200 828L1200 822L1206 822L1206 815L1212 815L1212 809L1217 809L1217 796L1229 796L1229 790L1233 790L1233 776L1239 776L1239 770L1244 770L1244 764L1250 764L1250 757L1261 757L1261 745L1001 745z"/>
<path style="fill:#19b2d9; stroke:none;" d="M936 822L936 828L941 828L941 822L936 822M924 834L924 841L930 841L930 834L924 834M919 841L919 847L924 847L924 841L919 841M913 847L913 853L919 853L919 847L913 847M907 853L907 860L913 860L913 853L907 853M903 860L903 866L907 866L907 860L903 860M892 872L892 879L897 879L897 872L892 872M886 879L886 885L892 885L892 879L886 879M875 891L875 898L880 898L880 891L875 891M869 898L869 904L875 904L875 898L869 898M863 904L863 912L869 912L869 904L863 904M858 912L858 918L863 918L863 912L858 912M853 918L853 924L858 924L858 918L853 918M847 924L847 931L853 931L853 924L847 924M842 931L842 937L847 937L847 931L842 931M836 937L836 943L842 943L842 937L836 937M831 943L831 950L836 950L836 943L831 943M825 950L825 956L831 956L831 950L825 950M819 956L819 962L825 962L825 956L819 956M814 962L814 969L819 969L819 962L814 962M809 969L809 975L814 975L814 969L809 969M731 1065L731 1071L737 1071L737 1065L731 1065z"/>
<path style="fill:#036c86; stroke:none;" d="M1273 1065L1273 1071L1267 1071L1267 1078L1261 1078L1261 1084L1256 1084L1256 1090L1250 1090L1250 1097L1244 1097L1244 1103L1239 1103L1239 1109L1233 1109L1233 1116L1229 1116L1229 1122L1223 1122L1223 1128L1217 1128L1217 1135L1212 1135L1212 1141L1206 1141L1206 1147L1200 1147L1200 1154L1195 1154L1195 1160L1189 1160L1189 1166L1183 1166L1183 1174L1179 1174L1179 1180L1173 1180L1173 1186L1168 1186L1168 1193L1162 1193L1162 1199L1156 1199L1156 1205L1151 1205L1151 1212L1145 1212L1145 1218L1139 1218L1139 1231L1145 1231L1145 1237L1151 1237L1151 1244L1156 1244L1156 1250L1162 1250L1162 1256L1168 1256L1168 1263L1173 1263L1173 1269L1179 1269L1179 1275L1183 1275L1183 1282L1189 1282L1189 1288L1195 1288L1195 1294L1200 1294L1200 1302L1206 1302L1206 1308L1212 1308L1212 1314L1217 1314L1217 1321L1223 1321L1223 1327L1229 1327L1229 1333L1233 1333L1233 1340L1239 1340L1239 1346L1244 1346L1244 1352L1250 1352L1250 1359L1256 1359L1256 1365L1261 1365L1261 1371L1267 1371L1267 1378L1273 1378L1273 1384L1277 1384L1277 1390L1283 1390L1283 1403L1294 1403L1294 1416L1306 1416L1306 1430L1311 1430L1311 1436L1317 1436L1317 1442L1322 1442L1322 1449L1327 1449L1327 1455L1333 1455L1333 1461L1338 1461L1338 1468L1344 1468L1344 1474L1350 1474L1350 1480L1355 1480L1355 1487L1361 1487L1361 1499L1367 1499L1367 1506L1371 1506L1371 1512L1377 1512L1377 1518L1382 1518L1382 1525L1388 1525L1388 1531L1394 1531L1394 1537L1399 1537L1399 1544L1405 1544L1405 1550L1411 1550L1411 1556L1416 1556L1416 1564L1421 1564L1421 1570L1427 1570L1427 1583L1432 1583L1432 1589L1438 1589L1438 1596L1443 1596L1443 1602L1449 1602L1449 1608L1455 1608L1455 1615L1460 1615L1460 1621L1465 1621L1465 1627L1471 1627L1471 1634L1476 1634L1476 1640L1482 1640L1482 1646L1488 1646L1488 1653L1493 1653L1493 1659L1488 1659L1488 1665L1482 1665L1482 1672L1476 1672L1476 1678L1471 1678L1471 1684L1465 1684L1465 1692L1460 1692L1460 1698L1455 1698L1455 1711L1443 1711L1443 1723L1438 1723L1438 1730L1432 1730L1432 1736L1427 1736L1427 1742L1421 1742L1421 1749L1416 1749L1416 1755L1411 1755L1411 1762L1405 1762L1405 1768L1399 1768L1399 1774L1394 1774L1394 1781L1388 1781L1388 1787L1382 1787L1382 1793L1377 1793L1377 1800L1371 1800L1371 1806L1367 1806L1367 1812L1361 1812L1361 1820L1355 1820L1355 1826L1350 1826L1350 1832L1344 1832L1344 1839L1338 1839L1338 1845L1333 1845L1333 1851L1327 1851L1327 1858L1322 1858L1322 1864L1317 1864L1317 1870L1311 1870L1311 1883L1306 1883L1306 1889L1300 1889L1300 1896L1294 1896L1294 1902L1289 1902L1289 1908L1283 1908L1283 1915L1277 1915L1277 1921L1273 1921L1273 1927L1267 1927L1267 1934L1261 1934L1261 1940L1256 1940L1256 1948L1250 1948L1250 1954L1244 1954L1244 1960L1239 1960L1239 1967L1233 1967L1233 1973L1229 1973L1229 1979L1223 1979L1223 1992L1217 1992L1217 1998L1212 1998L1212 2005L1206 2005L1206 2011L1200 2011L1200 2017L1195 2017L1195 2024L1189 2024L1189 2030L1183 2030L1183 2036L1179 2036L1179 2043L1173 2043L1173 2049L1168 2049L1168 2055L1162 2055L1162 2062L1156 2062L1156 2068L1151 2068L1151 2082L1139 2082L1139 2095L1129 2095L1129 2107L1123 2107L1123 2114L1118 2114L1118 2120L1112 2120L1112 2126L1106 2126L1106 2133L1101 2133L1101 2139L1095 2139L1095 2145L1091 2145L1091 2152L1085 2152L1085 2158L1079 2158L1079 2164L1074 2164L1074 2171L1068 2171L1068 2177L1062 2177L1062 2190L1057 2190L1057 2196L1051 2196L1051 2202L1045 2202L1045 2210L1035 2210L1035 2222L1030 2222L1030 2229L1018 2229L1018 2241L1277 2241L1277 2235L1283 2235L1283 2229L1289 2229L1289 2222L1294 2222L1294 2216L1300 2216L1300 2210L1306 2210L1306 2202L1311 2202L1311 2196L1317 2196L1317 2190L1322 2190L1322 2177L1333 2177L1333 2171L1338 2171L1338 2158L1344 2158L1344 2152L1350 2152L1350 2145L1355 2145L1355 2139L1361 2139L1361 2133L1367 2133L1367 2126L1371 2126L1371 2120L1377 2120L1377 2114L1382 2114L1382 2107L1388 2107L1388 2101L1394 2101L1394 2095L1399 2095L1399 2088L1405 2088L1405 2082L1411 2082L1411 2074L1416 2074L1416 2068L1421 2068L1421 2062L1427 2062L1427 2055L1432 2055L1432 2049L1438 2049L1438 2043L1443 2043L1443 2036L1449 2036L1449 2030L1455 2030L1455 2024L1460 2024L1460 2017L1465 2017L1465 2011L1471 2011L1471 2005L1476 2005L1476 1998L1482 1998L1482 1992L1488 1992L1488 1986L1493 1986L1493 1979L1499 1979L1499 1973L1505 1973L1505 1967L1510 1967L1510 1960L1515 1960L1515 1954L1520 1954L1520 1948L1526 1948L1526 1934L1532 1934L1532 1927L1537 1927L1537 1921L1543 1921L1543 1915L1549 1915L1549 1908L1554 1908L1554 1902L1559 1902L1559 1896L1564 1896L1564 1889L1570 1889L1570 1883L1576 1883L1576 1877L1581 1877L1581 1870L1587 1870L1587 1864L1593 1864L1593 1858L1598 1858L1598 1851L1604 1851L1604 1845L1609 1845L1609 1839L1614 1839L1614 1832L1620 1832L1620 1826L1626 1826L1626 1820L1631 1820L1631 1812L1637 1812L1637 1806L1643 1806L1643 1800L1648 1800L1648 1793L1653 1793L1653 1787L1658 1787L1658 1781L1664 1781L1664 1774L1670 1774L1670 1768L1675 1768L1675 1755L1687 1755L1687 1749L1692 1749L1692 1742L1698 1742L1698 1736L1702 1736L1702 1730L1708 1730L1708 1723L1714 1723L1714 1711L1719 1711L1719 1704L1725 1704L1725 1698L1731 1698L1731 1692L1736 1692L1736 1684L1742 1684L1742 1678L1747 1678L1747 1672L1752 1672L1752 1665L1758 1665L1758 1659L1764 1659L1764 1653L1758 1653L1758 1646L1752 1646L1752 1640L1747 1640L1747 1634L1742 1634L1742 1627L1736 1627L1736 1621L1731 1621L1731 1615L1725 1615L1725 1608L1719 1608L1719 1596L1714 1596L1714 1589L1708 1589L1708 1583L1702 1583L1702 1577L1698 1577L1698 1570L1692 1570L1692 1564L1687 1564L1687 1556L1681 1556L1681 1550L1675 1550L1675 1544L1670 1544L1670 1537L1664 1537L1664 1531L1658 1531L1658 1525L1653 1525L1653 1518L1648 1518L1648 1512L1643 1512L1643 1506L1637 1506L1637 1499L1631 1499L1631 1493L1626 1493L1626 1487L1620 1487L1620 1480L1614 1480L1614 1474L1609 1474L1609 1468L1604 1468L1604 1461L1598 1461L1598 1455L1593 1455L1593 1449L1587 1449L1587 1442L1581 1442L1581 1436L1576 1436L1576 1422L1570 1422L1570 1416L1564 1416L1564 1409L1559 1409L1559 1403L1554 1403L1554 1397L1549 1397L1549 1390L1543 1390L1543 1384L1537 1384L1537 1378L1532 1378L1532 1371L1526 1371L1526 1365L1520 1365L1520 1359L1515 1359L1515 1352L1510 1352L1510 1346L1505 1346L1505 1340L1499 1340L1499 1333L1493 1333L1493 1327L1488 1327L1488 1321L1482 1321L1482 1314L1476 1314L1476 1308L1471 1308L1471 1302L1465 1302L1465 1294L1460 1294L1460 1288L1455 1288L1455 1275L1449 1275L1449 1269L1438 1269L1438 1256L1432 1256L1432 1250L1427 1250L1427 1244L1421 1244L1421 1237L1416 1237L1416 1231L1411 1231L1411 1224L1405 1224L1405 1218L1399 1218L1399 1212L1394 1212L1394 1205L1388 1205L1388 1199L1382 1199L1382 1193L1377 1193L1377 1186L1371 1186L1371 1180L1367 1180L1367 1174L1361 1174L1361 1166L1355 1166L1355 1160L1350 1160L1350 1154L1344 1154L1344 1147L1338 1147L1338 1141L1333 1141L1333 1135L1327 1135L1327 1128L1322 1128L1322 1122L1317 1122L1317 1109L1311 1109L1311 1103L1306 1103L1306 1097L1300 1097L1300 1090L1294 1090L1294 1084L1289 1084L1289 1078L1283 1078L1283 1071L1277 1071L1277 1065L1273 1065z"/>
<path style="fill:#19b2d9; stroke:none;" d="M725 1071L725 1078L731 1078L731 1071L725 1071M720 1078L720 1084L725 1084L725 1078L720 1078M715 1084L715 1090L720 1090L720 1084L715 1084M710 1090L710 1097L715 1097L715 1090L710 1090M704 1097L704 1103L710 1103L710 1097L704 1097M698 1103L698 1109L704 1109L704 1103L698 1103M693 1109L693 1116L698 1116L698 1109L693 1109M687 1116L687 1122L693 1122L693 1116L687 1116M681 1122L681 1128L687 1128L687 1122L681 1122M676 1128L676 1135L681 1135L681 1128L676 1128M670 1135L670 1141L676 1141L676 1135L670 1135M665 1141L665 1147L670 1147L670 1141L665 1141M660 1147L660 1154L665 1154L665 1147L660 1147M654 1154L654 1160L660 1160L660 1154L654 1154M648 1160L648 1166L654 1166L654 1160L648 1160M643 1166L643 1174L648 1174L648 1166L643 1166M631 1180L631 1186L637 1186L637 1180L631 1180M626 1186L626 1193L631 1193L631 1186L626 1186z"/>
<path style="fill:#a2e0eb; stroke:none;" d="M1129 1231L1129 1237L1123 1237L1123 1244L1118 1244L1118 1250L1112 1250L1112 1256L1106 1256L1106 1263L1101 1263L1101 1269L1095 1269L1095 1282L1091 1282L1091 1288L1085 1288L1085 1294L1079 1294L1079 1302L1074 1302L1074 1308L1068 1308L1068 1314L1062 1314L1062 1321L1057 1321L1057 1327L1051 1327L1051 1333L1045 1333L1045 1340L1041 1340L1041 1346L1035 1346L1035 1352L1030 1352L1030 1359L1024 1359L1024 1365L1018 1365L1018 1371L1013 1371L1013 1378L1007 1378L1007 1384L1001 1384L1001 1390L997 1390L997 1397L991 1397L991 1403L985 1403L985 1409L980 1409L980 1416L974 1416L974 1422L968 1422L968 1430L963 1430L963 1436L957 1436L957 1442L952 1442L952 1455L947 1455L947 1461L941 1461L941 1468L936 1468L936 1474L930 1474L930 1480L924 1480L924 1487L919 1487L919 1506L924 1506L924 1512L930 1512L930 1518L936 1518L936 1525L941 1525L941 1531L947 1531L947 1537L952 1537L952 1544L957 1544L957 1550L963 1550L963 1556L968 1556L968 1564L974 1564L974 1570L980 1570L980 1577L985 1577L985 1583L991 1583L991 1589L997 1589L997 1596L1001 1596L1001 1602L1007 1602L1007 1608L1013 1608L1013 1615L1018 1615L1018 1621L1024 1621L1024 1627L1030 1627L1030 1634L1035 1634L1035 1640L1041 1640L1041 1646L1045 1646L1045 1653L1051 1653L1051 1659L1057 1659L1057 1665L1062 1665L1062 1672L1068 1672L1068 1678L1074 1678L1074 1692L1079 1692L1079 1698L1085 1698L1085 1704L1091 1704L1091 1711L1095 1711L1095 1717L1101 1717L1101 1723L1106 1723L1106 1730L1112 1730L1112 1736L1118 1736L1118 1742L1123 1742L1123 1749L1129 1749L1129 1755L1135 1755L1135 1762L1145 1762L1145 1755L1151 1755L1151 1749L1156 1749L1156 1742L1162 1742L1162 1736L1168 1736L1168 1730L1173 1730L1173 1717L1179 1717L1179 1711L1183 1711L1183 1704L1189 1704L1189 1698L1195 1698L1195 1692L1200 1692L1200 1684L1206 1684L1206 1678L1212 1678L1212 1672L1217 1672L1217 1665L1223 1665L1223 1659L1229 1659L1229 1653L1233 1653L1233 1646L1239 1646L1239 1640L1244 1640L1244 1634L1250 1634L1250 1627L1256 1627L1256 1621L1261 1621L1261 1615L1267 1615L1267 1608L1273 1608L1273 1602L1277 1602L1277 1596L1283 1596L1283 1589L1289 1589L1289 1583L1294 1583L1294 1577L1300 1577L1300 1570L1306 1570L1306 1564L1311 1564L1311 1556L1317 1556L1317 1544L1322 1544L1322 1537L1327 1537L1327 1531L1333 1531L1333 1525L1338 1525L1338 1518L1344 1518L1344 1512L1350 1512L1350 1506L1355 1506L1355 1499L1361 1499L1361 1487L1355 1487L1355 1480L1350 1480L1350 1474L1344 1474L1344 1468L1338 1468L1338 1461L1333 1461L1333 1455L1327 1455L1327 1449L1322 1449L1322 1442L1317 1442L1317 1436L1311 1436L1311 1430L1306 1430L1306 1422L1300 1422L1300 1416L1294 1416L1294 1409L1289 1409L1289 1403L1283 1403L1283 1397L1277 1397L1277 1390L1273 1390L1273 1384L1267 1384L1267 1378L1261 1378L1261 1371L1256 1371L1256 1365L1250 1365L1250 1359L1244 1359L1244 1352L1239 1352L1239 1346L1233 1346L1233 1340L1229 1340L1229 1333L1223 1333L1223 1321L1217 1321L1217 1314L1212 1314L1212 1308L1206 1308L1206 1302L1200 1302L1200 1294L1195 1294L1195 1288L1189 1288L1189 1282L1183 1282L1183 1275L1179 1275L1179 1269L1173 1269L1173 1263L1168 1263L1168 1256L1162 1256L1162 1250L1156 1250L1156 1244L1151 1244L1151 1237L1145 1237L1145 1231L1129 1231z"/>
<path style="fill:#ffffff; stroke:none;" d="M1135 1237L1135 1244L1129 1244L1129 1250L1123 1250L1123 1256L1118 1256L1118 1263L1112 1263L1112 1269L1106 1269L1106 1275L1101 1275L1101 1282L1095 1282L1095 1288L1091 1288L1091 1294L1085 1294L1085 1302L1079 1302L1079 1308L1074 1308L1074 1314L1068 1314L1068 1321L1062 1321L1062 1327L1057 1327L1057 1333L1051 1333L1051 1340L1045 1340L1045 1346L1041 1346L1041 1352L1035 1352L1035 1359L1030 1359L1030 1365L1024 1365L1024 1371L1018 1371L1018 1384L1013 1384L1013 1390L1007 1390L1007 1397L1001 1397L1001 1403L997 1403L997 1409L991 1409L991 1416L985 1416L985 1422L980 1422L980 1430L974 1430L974 1436L968 1436L968 1442L963 1442L963 1449L957 1449L957 1455L952 1455L952 1461L947 1461L947 1468L941 1468L941 1474L936 1474L936 1480L930 1480L930 1487L924 1487L924 1499L930 1499L930 1506L936 1506L936 1512L941 1512L941 1525L947 1525L947 1531L952 1531L952 1537L957 1537L957 1544L963 1544L963 1550L968 1550L968 1556L974 1556L974 1564L980 1564L980 1570L985 1570L985 1577L991 1577L991 1583L997 1583L997 1589L1001 1589L1001 1596L1007 1596L1007 1602L1013 1602L1013 1608L1018 1608L1018 1615L1024 1615L1024 1621L1030 1621L1030 1627L1035 1627L1035 1634L1041 1634L1041 1640L1045 1640L1045 1646L1051 1646L1051 1653L1057 1653L1057 1659L1062 1659L1062 1665L1068 1665L1068 1672L1074 1672L1074 1678L1079 1678L1079 1684L1085 1684L1085 1698L1091 1698L1091 1704L1095 1704L1095 1711L1101 1711L1101 1717L1106 1717L1106 1723L1112 1723L1112 1730L1118 1730L1118 1736L1123 1736L1123 1742L1129 1742L1129 1749L1145 1749L1145 1742L1151 1742L1151 1736L1156 1736L1156 1730L1162 1730L1162 1723L1168 1723L1168 1717L1173 1717L1173 1711L1179 1711L1179 1704L1183 1704L1183 1698L1189 1698L1189 1692L1195 1692L1195 1684L1200 1684L1200 1678L1206 1678L1206 1672L1212 1672L1212 1665L1217 1665L1217 1659L1223 1659L1223 1653L1229 1653L1229 1646L1233 1646L1233 1640L1239 1640L1239 1634L1244 1634L1244 1627L1250 1627L1250 1621L1256 1621L1256 1608L1261 1608L1261 1602L1267 1602L1267 1596L1273 1596L1273 1589L1277 1589L1277 1583L1283 1583L1283 1577L1289 1577L1289 1570L1294 1570L1294 1564L1300 1564L1300 1556L1306 1556L1306 1550L1311 1550L1311 1544L1317 1544L1317 1537L1322 1537L1322 1531L1327 1531L1327 1525L1333 1525L1333 1518L1338 1518L1338 1512L1344 1512L1344 1506L1350 1506L1350 1499L1355 1499L1355 1487L1350 1487L1350 1480L1344 1480L1344 1474L1338 1474L1338 1468L1333 1468L1333 1461L1327 1461L1327 1455L1322 1455L1322 1449L1317 1449L1317 1442L1311 1442L1311 1436L1306 1436L1306 1430L1300 1430L1300 1422L1294 1422L1294 1416L1289 1416L1289 1409L1283 1409L1283 1403L1277 1403L1277 1397L1273 1397L1273 1390L1267 1390L1267 1384L1261 1384L1261 1378L1256 1378L1256 1371L1250 1371L1250 1365L1244 1365L1244 1359L1239 1359L1239 1352L1233 1352L1233 1346L1229 1346L1229 1340L1223 1340L1223 1333L1217 1333L1217 1327L1212 1327L1212 1321L1206 1321L1206 1314L1200 1314L1200 1302L1195 1302L1195 1294L1189 1294L1189 1288L1183 1288L1183 1282L1179 1282L1179 1275L1173 1275L1173 1269L1168 1269L1168 1263L1162 1263L1162 1256L1156 1256L1156 1250L1151 1250L1151 1244L1145 1244L1145 1237L1135 1237z"/>
<path style="fill:#19b2d9; stroke:none;" d="M560 1269L560 1275L566 1275L566 1269L560 1269M555 1275L555 1282L560 1282L560 1275L555 1275M543 1288L543 1294L549 1294L549 1288L543 1288M538 1294L538 1302L543 1302L543 1294L538 1294M532 1302L532 1308L538 1308L538 1302L532 1302M527 1308L527 1314L532 1314L532 1308L527 1308M522 1314L522 1321L527 1321L527 1314L522 1314M516 1321L516 1327L522 1327L522 1321L516 1321M510 1327L510 1340L516 1340L516 1327L510 1327M1223 1327L1223 1333L1229 1333L1229 1327L1223 1327M1229 1333L1229 1340L1233 1340L1233 1333L1229 1333M516 1340L516 1659L522 1659L522 1665L527 1665L527 1672L532 1672L532 1678L538 1678L538 1684L543 1684L543 1692L549 1692L549 1698L555 1698L555 1711L560 1711L560 1717L566 1717L566 1723L572 1723L572 1730L576 1730L576 1736L582 1736L582 1742L587 1742L587 1749L593 1749L593 1755L599 1755L599 1762L604 1762L604 1768L610 1768L610 1774L616 1774L616 1781L621 1781L621 1787L626 1787L626 1793L631 1793L631 1800L637 1800L637 1806L643 1806L643 1812L648 1812L648 1820L654 1820L654 1826L660 1826L660 1832L665 1832L665 1839L670 1839L670 1845L676 1845L676 1851L681 1851L681 1864L693 1864L693 1870L698 1870L698 1877L704 1877L704 1883L710 1883L710 1889L715 1889L715 1896L720 1896L720 1902L725 1902L725 1915L731 1915L731 1921L737 1921L737 1927L742 1927L742 1934L748 1934L748 1940L754 1940L754 1948L759 1948L759 1954L764 1954L764 1960L769 1960L769 1967L775 1967L775 1973L781 1973L781 1979L786 1979L786 1986L792 1986L792 1992L798 1992L798 1998L803 1998L803 2005L809 2005L809 2011L814 2011L814 2017L819 2017L819 2024L825 2024L825 2030L831 2030L831 2043L836 2043L836 2049L847 2049L847 2062L853 2062L853 2068L858 2068L858 2074L863 2074L863 2082L869 2082L869 2088L875 2088L875 2095L880 2095L880 2101L886 2101L886 2107L892 2107L892 2114L897 2114L897 2120L903 2120L903 2126L907 2126L907 2133L913 2133L913 2139L919 2139L919 2145L924 2145L924 2152L930 2152L930 2158L936 2158L936 2164L941 2164L941 2171L947 2171L947 2177L952 2177L952 2183L957 2183L957 2190L963 2190L963 2202L968 2202L968 2210L974 2210L974 2216L980 2216L980 2222L985 2222L985 2229L991 2229L991 2235L997 2235L997 2241L1007 2241L1007 2248L1273 2248L1273 2241L1018 2241L1018 2229L1030 2229L1030 2222L1035 2222L1035 2210L1045 2210L1045 2202L1051 2202L1051 2196L1057 2196L1057 2190L1062 2190L1062 2177L1068 2177L1068 2171L1074 2171L1074 2164L1079 2164L1079 2158L1085 2158L1085 2152L1091 2152L1091 2145L1095 2145L1095 2139L1101 2139L1101 2133L1106 2133L1106 2126L1112 2126L1112 2120L1118 2120L1118 2114L1123 2114L1123 2107L1129 2107L1129 2095L1139 2095L1139 2082L1151 2082L1151 2068L1156 2068L1156 2062L1162 2062L1162 2055L1168 2055L1168 2049L1173 2049L1173 2043L1179 2043L1179 2036L1183 2036L1183 2030L1189 2030L1189 2024L1195 2024L1195 2017L1200 2017L1200 2011L1206 2011L1206 2005L1212 2005L1212 1998L1217 1998L1217 1992L1223 1992L1223 1979L1229 1979L1229 1973L1233 1973L1233 1967L1239 1967L1239 1960L1244 1960L1244 1954L1250 1954L1250 1948L1256 1948L1256 1940L1261 1940L1261 1934L1267 1934L1267 1927L1273 1927L1273 1921L1277 1921L1277 1915L1283 1915L1283 1908L1289 1908L1289 1902L1294 1902L1294 1896L1300 1896L1300 1889L1306 1889L1306 1883L1311 1883L1311 1870L1317 1870L1317 1864L1322 1864L1322 1858L1327 1858L1327 1851L1333 1851L1333 1845L1338 1845L1338 1839L1344 1839L1344 1832L1350 1832L1350 1826L1355 1826L1355 1820L1361 1820L1361 1812L1367 1812L1367 1806L1371 1806L1371 1800L1377 1800L1377 1793L1382 1793L1382 1787L1388 1787L1388 1781L1394 1781L1394 1774L1399 1774L1399 1768L1405 1768L1405 1762L1411 1762L1411 1755L1416 1755L1416 1749L1421 1749L1421 1742L1427 1742L1427 1736L1432 1736L1432 1730L1438 1730L1438 1723L1443 1723L1443 1711L1455 1711L1455 1698L1460 1698L1460 1692L1465 1692L1465 1684L1471 1684L1471 1678L1476 1678L1476 1672L1482 1672L1482 1665L1488 1665L1488 1659L1493 1659L1493 1653L1488 1653L1488 1646L1482 1646L1482 1640L1476 1640L1476 1634L1471 1634L1471 1627L1465 1627L1465 1621L1460 1621L1460 1615L1455 1615L1455 1608L1449 1608L1449 1602L1443 1602L1443 1596L1438 1596L1438 1589L1432 1589L1432 1583L1427 1583L1427 1570L1421 1570L1421 1564L1416 1564L1416 1556L1411 1556L1411 1550L1405 1550L1405 1544L1399 1544L1399 1537L1394 1537L1394 1531L1388 1531L1388 1525L1382 1525L1382 1518L1377 1518L1377 1512L1371 1512L1371 1506L1367 1506L1367 1499L1355 1499L1355 1506L1350 1506L1350 1512L1344 1512L1344 1518L1338 1518L1338 1525L1333 1525L1333 1531L1327 1531L1327 1537L1322 1537L1322 1544L1317 1544L1317 1556L1311 1556L1311 1564L1306 1564L1306 1570L1300 1570L1300 1577L1294 1577L1294 1583L1289 1583L1289 1589L1283 1589L1283 1596L1277 1596L1277 1602L1273 1602L1273 1608L1267 1608L1267 1615L1261 1615L1261 1621L1256 1621L1256 1627L1250 1627L1250 1634L1244 1634L1244 1640L1239 1640L1239 1646L1233 1646L1233 1653L1229 1653L1229 1659L1223 1659L1223 1665L1217 1665L1217 1672L1212 1672L1212 1678L1206 1678L1206 1684L1200 1684L1200 1692L1195 1692L1195 1698L1189 1698L1189 1704L1183 1704L1183 1711L1179 1711L1179 1717L1173 1717L1173 1730L1168 1730L1168 1736L1162 1736L1162 1742L1156 1742L1156 1749L1151 1749L1151 1755L1145 1755L1145 1762L1135 1762L1135 1774L1129 1774L1129 1781L1123 1781L1123 1787L1118 1787L1118 1793L1112 1793L1112 1800L1106 1800L1106 1806L1101 1806L1101 1812L1095 1812L1095 1820L1091 1820L1091 1826L1085 1826L1085 1832L1079 1832L1079 1839L1074 1839L1074 1845L1068 1845L1068 1851L1062 1851L1062 1858L1057 1858L1057 1864L1051 1864L1051 1870L1045 1870L1045 1877L1041 1877L1041 1883L1035 1883L1035 1889L1030 1889L1030 1896L1024 1896L1024 1902L1018 1902L1018 1915L1007 1915L1007 1921L997 1921L997 1915L991 1915L991 1908L985 1908L985 1902L980 1902L980 1896L974 1896L974 1889L968 1889L968 1883L963 1883L963 1877L957 1877L957 1864L952 1864L952 1858L947 1858L947 1851L941 1851L941 1845L936 1845L936 1839L930 1839L930 1832L924 1832L924 1826L919 1826L919 1820L913 1820L913 1812L907 1812L907 1806L903 1806L903 1800L897 1800L897 1793L892 1793L892 1787L886 1787L886 1781L880 1781L880 1774L875 1774L875 1768L869 1768L869 1762L863 1762L863 1755L858 1755L858 1749L853 1749L853 1742L847 1742L847 1736L842 1736L842 1723L836 1723L836 1717L825 1717L825 1704L819 1704L819 1698L814 1698L814 1692L809 1692L809 1684L803 1684L803 1678L798 1678L798 1672L792 1672L792 1665L786 1665L786 1659L781 1659L781 1653L775 1653L775 1646L769 1646L769 1640L764 1640L764 1634L759 1634L759 1627L754 1627L754 1621L748 1621L748 1615L742 1615L742 1608L737 1608L737 1602L731 1602L731 1596L725 1596L725 1589L720 1589L720 1583L715 1583L715 1570L704 1570L704 1556L698 1556L698 1550L693 1550L693 1544L687 1544L687 1537L681 1537L681 1531L676 1531L676 1525L670 1525L670 1518L665 1518L665 1512L660 1512L660 1506L654 1506L654 1499L648 1499L648 1493L643 1493L643 1487L637 1487L637 1480L631 1480L631 1474L626 1474L626 1468L621 1468L621 1461L616 1461L616 1455L610 1455L610 1449L604 1449L604 1442L599 1442L599 1436L593 1436L593 1422L582 1422L582 1416L576 1416L576 1403L566 1403L566 1390L560 1390L560 1384L555 1384L555 1378L549 1378L549 1371L543 1371L543 1365L538 1365L538 1359L532 1359L532 1352L527 1352L527 1346L522 1346L522 1340L516 1340M1233 1340L1233 1346L1239 1346L1239 1340L1233 1340M1239 1346L1239 1352L1244 1352L1244 1346L1239 1346M1244 1352L1244 1359L1250 1359L1250 1352L1244 1352M1250 1359L1250 1365L1256 1365L1256 1359L1250 1359M1256 1365L1256 1371L1261 1371L1261 1365L1256 1365M1261 1371L1261 1378L1267 1378L1267 1371L1261 1371M1267 1378L1267 1384L1273 1384L1273 1378L1267 1378M1273 1384L1273 1390L1277 1390L1277 1384L1273 1384M1277 1390L1277 1397L1283 1397L1283 1390L1277 1390M1289 1403L1289 1409L1294 1409L1294 1403L1289 1403M1300 1416L1300 1422L1306 1422L1306 1416L1300 1416M1013 1615L1013 1621L1018 1621L1018 1615L1013 1615M1018 1621L1018 1627L1024 1627L1024 1621L1018 1621M1024 1627L1024 1634L1030 1634L1030 1627L1024 1627M1030 1634L1030 1640L1035 1640L1035 1634L1030 1634M1035 1640L1035 1646L1041 1646L1041 1640L1035 1640M1041 1646L1041 1653L1045 1653L1045 1646L1041 1646M1045 1653L1045 1659L1051 1659L1051 1653L1045 1653M1051 1659L1051 1665L1057 1665L1057 1659L1051 1659M1758 1659L1758 1665L1764 1665L1764 1659L1758 1659M1057 1665L1057 1672L1062 1672L1062 1665L1057 1665M1752 1665L1752 1672L1758 1672L1758 1665L1752 1665M1062 1672L1062 1678L1068 1678L1068 1672L1062 1672M1747 1672L1747 1678L1752 1678L1752 1672L1747 1672M1068 1678L1068 1684L1074 1684L1074 1678L1068 1678M1742 1678L1742 1684L1747 1684L1747 1678L1742 1678M1736 1684L1736 1692L1742 1692L1742 1684L1736 1684M1731 1692L1731 1698L1736 1698L1736 1692L1731 1692M1725 1698L1725 1704L1731 1704L1731 1698L1725 1698M1719 1704L1719 1711L1725 1711L1725 1704L1719 1704M1714 1711L1714 1717L1719 1717L1719 1711L1714 1711M1675 1755L1675 1762L1681 1762L1681 1755L1675 1755M1620 1826L1620 1832L1626 1832L1626 1826L1620 1826M1614 1832L1614 1839L1620 1839L1620 1832L1614 1832M1609 1839L1609 1845L1614 1845L1614 1839L1609 1839M1604 1845L1604 1851L1609 1851L1609 1845L1604 1845M1598 1851L1598 1858L1604 1858L1604 1851L1598 1851M1593 1858L1593 1864L1598 1864L1598 1858L1593 1858M1587 1864L1587 1870L1593 1870L1593 1864L1587 1864M1581 1870L1581 1877L1587 1877L1587 1870L1581 1870M1576 1877L1576 1883L1581 1883L1581 1877L1576 1877M1570 1883L1570 1889L1576 1889L1576 1883L1570 1883M1564 1889L1564 1896L1570 1896L1570 1889L1564 1889M1559 1896L1559 1902L1564 1902L1564 1896L1559 1896M1554 1902L1554 1908L1559 1908L1559 1902L1554 1902M1549 1908L1549 1915L1554 1915L1554 1908L1549 1908M1543 1915L1543 1921L1549 1921L1549 1915L1543 1915M1537 1921L1537 1927L1543 1927L1543 1921L1537 1921M1532 1927L1532 1934L1537 1934L1537 1927L1532 1927M1526 1934L1526 1940L1532 1940L1532 1934L1526 1934M1460 2017L1460 2024L1465 2024L1465 2017L1460 2017M1455 2024L1455 2030L1460 2030L1460 2024L1455 2024M1449 2030L1449 2036L1455 2036L1455 2030L1449 2030M1443 2036L1443 2043L1449 2043L1449 2036L1443 2036M1438 2043L1438 2049L1443 2049L1443 2043L1438 2043M1432 2049L1432 2055L1438 2055L1438 2049L1432 2049M1427 2055L1427 2062L1432 2062L1432 2055L1427 2055M1421 2062L1421 2068L1427 2068L1427 2062L1421 2062M1416 2068L1416 2074L1421 2074L1421 2068L1416 2068M1411 2074L1411 2082L1416 2082L1416 2074L1411 2074M1405 2082L1405 2088L1411 2088L1411 2082L1405 2082M1399 2088L1399 2095L1405 2095L1405 2088L1399 2088M1394 2095L1394 2101L1399 2101L1399 2095L1394 2095M1388 2101L1388 2107L1394 2107L1394 2101L1388 2101M1382 2107L1382 2114L1388 2114L1388 2107L1382 2107M1377 2114L1377 2120L1382 2120L1382 2114L1377 2114M1371 2120L1371 2126L1377 2126L1377 2120L1371 2120M1367 2126L1367 2133L1371 2133L1371 2126L1367 2126M1361 2133L1361 2139L1367 2139L1367 2133L1361 2133M1355 2139L1355 2145L1361 2145L1361 2139L1355 2139M1350 2145L1350 2152L1355 2152L1355 2145L1350 2145M1344 2152L1344 2158L1350 2158L1350 2152L1344 2152M1338 2158L1338 2164L1344 2164L1344 2158L1338 2158M1322 2177L1322 2183L1327 2183L1327 2177L1322 2177M1306 2202L1306 2210L1311 2210L1311 2202L1306 2202M1300 2210L1300 2216L1306 2216L1306 2210L1300 2210M1294 2216L1294 2222L1300 2222L1300 2216L1294 2216M1289 2222L1289 2229L1294 2229L1294 2222L1289 2222M1283 2229L1283 2235L1289 2235L1289 2229L1283 2229M1277 2235L1277 2241L1283 2241L1283 2235L1277 2235z"/>
</svg>
